<svg xmlns="http://www.w3.org/2000/svg" width="30" height="30" viewBox="0 0 30 30" fill="none">
  <path d="M15 15C17.0711 15 18.75 13.3211 18.75 11.25C18.75 9.17893 17.0711 7.5 15 7.5C12.9289 7.5 11.25 9.17893 11.25 11.25C11.25 13.3211 12.9289 15 15 15Z" stroke="#8375B5" stroke-width="2.5"/>
  <path d="M22.4613 25C22.2624 21.3856 21.1558 18.75 14.9998 18.75C8.84389 18.75 7.73727 21.3856 7.53833 25" stroke="#8375B5" stroke-width="2.5" stroke-linecap="round"/>
  <path d="M8.75 4.17228C10.5886 3.10871 12.7232 2.5 15 2.5C21.9035 2.5 27.5 8.09644 27.5 15C27.5 21.9035 21.9035 27.5 15 27.5C8.09644 27.5 2.5 21.9035 2.5 15C2.5 12.7232 3.10871 10.5886 4.17228 8.75" stroke="#8375B5" stroke-width="2.5" stroke-linecap="round"/>
</svg>
