<svg xmlns="http://www.w3.org/2000/svg" width="50" height="50" viewBox="0 0 50 50" fill="none">
  <path d="M25 25C28.4518 25 31.25 22.2018 31.25 18.75C31.25 15.2982 28.4518 12.5 25 12.5C21.5482 12.5 18.75 15.2982 18.75 18.75C18.75 22.2018 21.5482 25 25 25Z" stroke="#2D1B70" stroke-width="4"/>
  <path d="M37.4355 41.6667C37.104 35.6427 35.2597 31.25 24.9997 31.25C14.7399 31.25 12.8955 35.6427 12.564 41.6667" stroke="#2D1B70" stroke-width="4" stroke-linecap="round"/>
  <path d="M14.5834 6.95379C17.6477 5.18119 21.2055 4.16666 25.0001 4.16666C36.5059 4.16666 45.8334 13.4941 45.8334 25C45.8334 36.5058 36.5059 45.8333 25.0001 45.8333C13.4941 45.8333 4.16675 36.5058 4.16675 25C4.16675 21.2054 5.18127 17.6476 6.95387 14.5833" stroke="#2D1B70" stroke-width="4" stroke-linecap="round"/>
</svg>