<svg xmlns="http://www.w3.org/2000/svg" width="50" height="80" viewBox="0 0 50 80" fill="none">
  <g clip-path="url(#clip0_119_51)">
    <g filter="url(#filter0_d_119_51)">
      <path d="M19.0355 51.3636V50.9545C19.081 46.6136 19.5355 43.1591 20.3991 40.5909C21.2628 38.0227 22.4901 35.9432 24.081 34.3523C25.6719 32.7614 27.581 31.2955 29.8082 29.9545C31.1491 29.1364 32.3537 28.1705 33.4219 27.0568C34.4901 25.9205 35.331 24.6136 35.9446 23.1364C36.581 21.6591 36.8991 20.0227 36.8991 18.2273C36.8991 16 36.3764 14.0682 35.331 12.4318C34.2855 10.7955 32.8878 9.53409 31.1378 8.64772C29.3878 7.76136 27.4446 7.31818 25.3082 7.31818C23.4446 7.31818 21.6491 7.70454 19.9219 8.47727C18.1946 9.25 16.7514 10.4659 15.5923 12.125C14.4332 13.7841 13.7628 15.9545 13.581 18.6364H4.99005C5.17187 14.7727 6.17187 11.4659 7.99005 8.71591C9.83096 5.96591 12.2514 3.86363 15.2514 2.40909C18.2741 0.954544 21.6264 0.227272 25.3082 0.227272C29.3082 0.227272 32.7855 1.02272 35.7401 2.61363C38.7173 4.20454 41.0128 6.38636 42.6264 9.15909C44.2628 11.9318 45.081 15.0909 45.081 18.6364C45.081 21.1364 44.6946 23.3977 43.9219 25.4205C43.1719 27.4432 42.081 29.25 40.6491 30.8409C39.2401 32.4318 37.5355 33.8409 35.5355 35.0682C33.5355 36.3182 31.9332 37.6364 30.7287 39.0227C29.5241 40.3864 28.6491 42.0114 28.1037 43.8977C27.5582 45.7841 27.2628 48.1364 27.2173 50.9545V51.3636H19.0355ZM23.3991 71.5455C21.7173 71.5455 20.2741 70.9432 19.0696 69.7386C17.8651 68.5341 17.2628 67.0909 17.2628 65.4091C17.2628 63.7273 17.8651 62.2841 19.0696 61.0795C20.2741 59.875 21.7173 59.2727 23.3991 59.2727C25.081 59.2727 26.5241 59.875 27.7287 61.0795C28.9332 62.2841 29.5355 63.7273 29.5355 65.4091C29.5355 66.5227 29.2514 67.5455 28.6832 68.4773C28.1378 69.4091 27.3991 70.1591 26.4673 70.7273C25.5582 71.2727 24.5355 71.5455 23.3991 71.5455Z" fill="url(#paint0_linear_119_51)"/>
    </g>
  </g>
  <defs>
    <filter id="filter0_d_119_51" x="0.990051" y="0.227272" width="48.0909" height="79.3182" filterUnits="userSpaceOnUse" color-interpolation-filters="sRGB">
      <feFlood flood-opacity="0" result="BackgroundImageFix"/>
      <feColorMatrix in="SourceAlpha" type="matrix" values="0 0 0 0 0 0 0 0 0 0 0 0 0 0 0 0 0 0 127 0" result="hardAlpha"/>
      <feOffset dy="4"/>
      <feGaussianBlur stdDeviation="2"/>
      <feComposite in2="hardAlpha" operator="out"/>
      <feColorMatrix type="matrix" values="0 0 0 0 0 0 0 0 0 0 0 0 0 0 0 0 0 0 0.3 0"/>
      <feBlend mode="normal" in2="BackgroundImageFix" result="effect1_dropShadow_119_51"/>
      <feBlend mode="normal" in="SourceGraphic" in2="effect1_dropShadow_119_51" result="shape"/>
    </filter>
    <linearGradient id="paint0_linear_119_51" x1="0.999991" y1="-22" x2="81.0119" y2="6.29006" gradientUnits="userSpaceOnUse">
      <stop offset="0.306125" stop-color="#2D1B70"/>
      <stop offset="1" stop-color="#0043A8"/>
    </linearGradient>
    <clipPath id="clip0_119_51">
      <rect width="50" height="80" fill="white"/>
    </clipPath>
  </defs>
</svg>
